<svg width="39" height="40" viewBox="0 0 39 40" fill="none" xmlns="http://www.w3.org/2000/svg">
<path d="M15.1717 26.1837H28.8138C29.3615 26.1837 29.8464 25.7581 29.8464 25.1487C29.8464 24.5415 29.3615 24.1201 28.8138 24.1201H15.4321C14.8612 24.1201 14.5101 23.7146 14.4215 23.1052L12.5439 10.2268C12.4098 9.219 11.9995 8.70923 10.7008 8.70923H6.68243C6.09978 8.70923 5.6001 9.21431 5.6001 9.80329C5.6001 10.3998 6.09978 10.9069 6.68243 10.9069H10.3755L12.1914 23.3438C12.4502 25.1007 13.3881 26.1837 15.1717 26.1837ZM13.1209 21.8916H28.9005C30.6895 21.8916 31.6317 20.8032 31.8883 19.0304L32.7731 13.137C32.7965 12.9784 32.8242 12.7824 32.8242 12.6516C32.8242 11.9837 32.3495 11.5147 31.551 11.5147H12.0719L12.0815 13.5901H30.4207L29.6688 18.8194C29.5877 19.4405 29.26 19.8258 28.6699 19.8258H13.1017L13.1209 21.8916ZM16.1271 32.0414C17.2556 32.0414 18.1563 31.1482 18.1563 30.0101C18.1563 28.8858 17.2556 27.9809 16.1271 27.9809C14.9931 27.9809 14.0861 28.8858 14.0861 30.0101C14.0861 31.1482 14.9931 32.0414 16.1271 32.0414ZM26.9639 32.0414C28.0999 32.0414 29.0027 31.1482 29.0027 30.0101C29.0027 28.8858 28.0999 27.9809 26.9639 27.9809C25.8396 27.9809 24.925 28.8858 24.925 30.0101C24.925 31.1482 25.8396 32.0414 26.9639 32.0414Z" fill="#525252"/>
</svg>
