<svg width="39" height="40" viewBox="0 0 39 40" fill="none" xmlns="http://www.w3.org/2000/svg">
<path d="M17.3076 20.5782C20.1388 20.5782 22.4334 18.0748 22.4334 15.0092C22.4334 11.9839 20.1496 9.58203 17.3076 9.58203C14.4923 9.58203 12.1776 12.0223 12.1797 15.0305C12.1914 18.0844 14.4838 20.5782 17.3076 20.5782ZM17.3076 18.5534C15.6852 18.5534 14.3048 17.0267 14.3026 15.0263C14.3005 13.0822 15.6723 11.6068 17.3076 11.6068C18.962 11.6068 20.3104 13.063 20.3104 15.0092C20.3104 17.0075 18.9491 18.5534 17.3076 18.5534ZM10.0009 31.4687H25.0851C24.8582 31.1162 24.708 30.7201 24.708 30.2877C24.6984 30.0071 24.6984 29.7245 24.6888 29.4439H9.61139C9.33413 29.4439 9.2221 29.3598 9.2221 29.1411C9.2221 27.3458 12.1248 23.9696 17.3076 23.9696C20.8335 23.9696 23.286 25.6121 24.3813 27.1062V25.644C23.5384 25.0109 22.9401 24.1292 22.6743 23.1453C21.1783 22.4129 19.3677 21.9448 17.3076 21.9448C11.0118 21.9448 7 26.2513 7 29.4587C7 30.8342 7.9743 31.4687 10.0009 31.4687Z" fill="#525252"/>
<path d="M27.7006 17.8645C25.6777 17.8645 24.0884 19.4751 24.0884 21.4629C24.0884 22.9661 24.9642 24.2711 26.3185 24.825V30.2107C26.3185 30.3703 26.3951 30.4957 26.5057 30.6192L27.4601 31.5642C27.5888 31.6886 27.795 31.7025 27.9535 31.5558L29.7073 29.8019C29.8582 29.6489 29.8519 29.4417 29.7052 29.2908L28.6901 28.2597L30.1186 26.86C30.2578 26.7112 30.2599 26.4977 30.0994 26.3276L28.7154 24.9415C30.3685 24.2374 31.3053 22.9844 31.3053 21.4629C31.3053 19.4751 29.6925 17.8645 27.7006 17.8645ZM27.6888 19.624C28.294 19.624 28.7787 20.1236 28.7787 20.7117C28.7787 21.3361 28.294 21.8282 27.6888 21.8282C27.0879 21.8282 26.584 21.3361 26.584 20.7117C26.584 20.1236 27.0783 19.624 27.6888 19.624Z" fill="#525252"/>
</svg>
