<svg width="39" height="40" viewBox="0 0 39 40" fill="none" xmlns="http://www.w3.org/2000/svg">
<path d="M10.5118 32.1329C12.136 32.1329 15.4232 30.5561 17.8949 28.7872C26.1641 28.9403 32.3331 24.1705 32.3331 17.9139C32.3331 11.8717 26.3024 7 18.7677 7C11.2309 7 5.2002 11.8717 5.2002 17.9139C5.2002 21.7576 7.59997 25.1973 11.2714 26.98C10.7673 27.9299 9.86731 29.2473 9.35473 29.9219C8.61552 30.9025 9.12762 32.1329 10.5118 32.1329ZM11.911 29.7616C11.7688 29.8157 11.7146 29.7348 11.8091 29.6085C12.4084 28.8674 13.3079 27.6993 13.7359 26.9008C14.0872 26.2492 13.9651 25.6848 13.2109 25.3269C9.62823 23.6498 7.55471 20.9699 7.55471 17.9139C7.55471 13.1915 12.5293 9.34491 18.7677 9.34491C25.0136 9.34491 29.9882 13.1915 29.9882 17.9139C29.9882 22.6267 25.0136 26.4733 18.7677 26.4733C18.5502 26.4733 18.2249 26.4637 17.811 26.4541C17.3103 26.4541 16.9332 26.6001 16.4668 26.9706C15.0549 28.0136 12.9564 29.3385 11.911 29.7616Z" fill="#525252"/>
<path d="M13.3239 19.7726C14.293 19.7726 15.0821 18.9738 15.0821 18.0026C15.0821 17.0313 14.2834 16.2422 13.3239 16.2422C12.3388 16.2422 11.5518 17.0313 11.5518 18.0026C11.5518 18.9738 12.3388 19.7726 13.3239 19.7726Z" fill="#525252"/>
<path d="M18.7612 19.7726C19.7324 19.7726 20.5333 18.9738 20.5333 18.0026C20.5333 17.0313 19.7324 16.2422 18.7612 16.2422C17.7899 16.2422 16.9912 17.0313 16.9912 18.0026C16.9912 18.9738 17.7899 19.7726 18.7612 19.7726Z" fill="#525252"/>
<path d="M24.2108 19.7726C25.1842 19.7726 25.9712 18.9738 25.9712 18.0026C25.9712 17.0313 25.1842 16.2422 24.2108 16.2422C23.23 16.2422 22.4429 17.0313 22.4429 18.0026C22.4429 18.9738 23.23 19.7726 24.2108 19.7726Z" fill="#525252"/>
</svg>
